HIERARCHY
ROOT Hips
{
	OFFSET -0.001795 -0.223333 0.028219
	CHANNELS 6 Xposition Yposition Zposition Zrotation Yrotation Xrotation 
	JOINT LeftUpLeg
	{
		OFFSET 0.069520 -0.091406 -0.006815
		CHANNELS 3 Zrotation Yrotation Xrotation
		JOINT LeftLeg
		{
			OFFSET 0.034277 -0.375199 -0.004496
			CHANNELS 3 Zrotation Yrotation Xrotation
			JOINT LeftFoot
			{
				OFFSET -0.013596 -0.397961 -0.043693
				CHANNELS 3 Zrotation Yrotation Xrotation
				JOINT LeftToe
				{
					OFFSET 0.026358 -0.055791 0.119288
					CHANNELS 3 Zrotation Yrotation Xrotation
					End Site
					{
						OFFSET 0.000000 0.000000 0.000000
					}
				}
			}
		}
	}
	JOINT RightUpLeg
	{
		OFFSET -0.067670 -0.090522 -0.004320
		CHANNELS 3 Zrotation Yrotation Xrotation
		JOINT RightLeg
		{
			OFFSET -0.038290 -0.382569 -0.008850
			CHANNELS 3 Zrotation Yrotation Xrotation
			JOINT RightFoot
			{
				OFFSET 0.015774 -0.398415 -0.042312
				CHANNELS 3 Zrotation Yrotation Xrotation
				JOINT RightToe
				{
					OFFSET -0.025372 -0.048144 0.123348
					CHANNELS 3 Zrotation Yrotation Xrotation
					End Site
					{
						OFFSET 0.000000 0.000000 0.000000
					}
				}
			}
		}
	}
	JOINT Spine
	{
		OFFSET -0.002533 0.108963 -0.026696
		CHANNELS 3 Zrotation Yrotation Xrotation
		JOINT Spine1
		{
			OFFSET 0.005487 0.135180 0.001092
			CHANNELS 3 Zrotation Yrotation Xrotation
			JOINT Spine2
			{
				OFFSET 0.001457 0.052922 0.025425
				CHANNELS 3 Zrotation Yrotation Xrotation
				JOINT Neck
				{
					OFFSET -0.002778 0.213870 -0.042857
					CHANNELS 3 Zrotation Yrotation Xrotation
					JOINT Head
					{
						OFFSET 0.005152 0.064970 0.051349
						CHANNELS 3 Zrotation Yrotation Xrotation
						End Site
						{
							OFFSET 0.000000 0.000000 0.000000
						}
					}
				}
				JOINT LeftShoulder
				{
					OFFSET 0.078845 0.121749 -0.034090
					CHANNELS 3 Zrotation Yrotation Xrotation
					JOINT LeftArm
					{
						OFFSET 0.090977 0.030469 -0.008868
						CHANNELS 3 Zrotation Yrotation Xrotation
						JOINT LeftForeArm
						{
							OFFSET 0.259612 -0.012772 -0.027456
							CHANNELS 3 Zrotation Yrotation Xrotation
							JOINT LeftHand
							{
								OFFSET 0.249234 0.008986 -0.001171
								CHANNELS 3 Zrotation Yrotation Xrotation
								End Site
								{
									OFFSET 0.000000 0.000000 0.000000
								}
							}
						}
					}
				}
				JOINT RightShoulder
				{
					OFFSET -0.081759 0.118833 -0.038615
					CHANNELS 3 Zrotation Yrotation Xrotation
					JOINT RightArm
					{
						OFFSET -0.096012 0.032551 -0.009143
						CHANNELS 3 Zrotation Yrotation Xrotation
						JOINT RightForeArm
						{
							OFFSET -0.253742 -0.013329 -0.021401
							CHANNELS 3 Zrotation Yrotation Xrotation
							JOINT RightHand
							{
								OFFSET -0.255298 0.007772 -0.005559
								CHANNELS 3 Zrotation Yrotation Xrotation
								End Site
								{
									OFFSET 0.000000 0.000000 0.000000
								}
							}
						}
					}
				}
			}
		}
	}
}
MOTION
Frames: 16
Frame Time: 0.050000
0.000000 0.953763 0.000000 -0.502254 -4.418064 0.179504 2.057207 0.573930 7.292999 -1.207256 0.317747 -7.032194 3.050497 9.262920 12.502167 0.000000 0.000000 0.000000 -3.864418 -0.088839 3.572917 2.792728 -0.322618 -3.848940 -0.583018 -6.343048 11.070727 0.000000 0.000000 0.000000 5.808637 -0.365714 3.545193 -4.971944 1.760028 -22.951670 -1.175870 6.310362 28.020585 9.024069 -3.551509 -23.376355 0.000000 0.000000 0.000000 -7.068332 -1.852632 0.163381 -26.127402 -8.241474 -2.805683 7.950599 -14.908620 -0.517359 0.000000 0.000000 0.000000 15.350702 -8.492611 -4.519702 27.425779 10.648287 -2.344450 -8.509969 16.466843 -0.335955 0.000000 0.000000 0.000000 
0.000251 0.952372 0.000222 -0.666542 -5.327180 0.170092 2.092832 0.642849 7.977831 -0.957963 0.335658 -7.950430 3.240418 9.475635 12.456086 0.000000 0.000000 0.000000 -4.081845 -0.037971 3.139814 3.068965 -0.328034 -3.415292 -0.433937 -6.477372 11.949021 0.000000 0.000000 0.000000 6.009834 -0.414508 4.025733 -5.354683 1.829515 -23.545206 -0.728825 7.124273 27.977820 9.040237 -3.381203 -24.162888 0.000000 0.000000 0.000000 -7.602740 -2.137106 0.223133 -28.370413 -8.962132 -2.882521 6.325286 -14.478886 -0.289661 0.000000 0.000000 0.000000 16.808627 -8.515672 -4.643784 29.853925 10.290743 -2.577951 -7.435497 17.892394 -0.210689 0.000000 0.000000 0.000000 
0.000471 0.951587 0.000199 -0.589307 -5.486056 0.026503 2.545778 0.588661 7.665350 -1.773828 0.345084 -6.575125 3.534693 9.829055 11.771423 0.000000 0.000000 0.000000 -4.261285 -0.032312 3.269347 2.898986 -0.317450 -3.500923 0.527986 -4.574544 11.653437 0.000000 0.000000 0.000000 6.332470 -0.422192 4.010648 -5.653692 1.901157 -23.660588 -0.715707 7.750237 28.631914 9.850291 -3.752189 -24.459104 0.000000 0.000000 0.000000 -8.535335 -3.122478 0.523281 -30.880449 -8.506222 -3.203431 5.648283 -16.373551 -0.239150 0.000000 0.000000 0.000000 18.455442 -8.623532 -4.763606 31.459416 10.877305 -2.614900 -5.838184 18.500042 0.024181 0.000000 0.000000 0.000000 
0.000509 0.951136 0.000482 -0.663768 -5.853275 -0.428166 2.622787 0.662545 8.516443 -2.142864 0.373404 -6.685455 3.968318 10.454262 11.315424 0.000000 0.000000 0.000000 -4.505568 -0.041986 3.781924 3.575466 -0.356006 -3.533026 0.610382 -4.668927 12.174147 0.000000 0.000000 0.000000 6.145539 -0.427380 4.257311 -5.540247 1.867286 -23.908096 -0.597354 7.600479 29.251970 9.113686 -3.371937 -24.502655 0.000000 0.000000 0.000000 -9.745084 -2.826676 0.372697 -33.624528 -8.668089 -3.486483 4.947022 -17.426855 -0.113454 0.000000 0.000000 0.000000 19.880343 -8.484310 -4.909003 33.450518 11.256066 -2.662618 -4.832612 19.521970 0.179904 0.000000 0.000000 0.000000 
0.000456 0.951254 0.000956 -0.671251 -6.018622 -0.398115 2.802151 0.666893 8.686348 -2.487481 0.402885 -6.997342 4.078488 10.674428 11.647192 0.000000 0.000000 0.000000 -4.511404 -0.039818 3.808247 3.393534 -0.344206 -3.635142 0.441579 -4.988434 12.121428 0.000000 0.000000 0.000000 5.851398 -0.414907 4.241998 -5.037687 1.741418 -23.543424 -0.532803 7.834326 28.369298 9.113392 -3.498639 -23.390036 0.000000 0.000000 0.000000 -10.830628 -3.312295 0.472165 -35.388858 -7.206647 -3.926237 3.068759 -18.886128 0.180256 0.000000 0.000000 0.000000 20.954062 -8.201264 -4.861611 34.966023 10.515472 -2.856112 -3.744500 20.499942 0.368177 0.000000 0.000000 0.000000 
0.000346 0.951397 0.001453 -0.692328 -5.990296 -0.139039 2.776189 0.648910 8.476269 -2.553168 0.405932 -6.981114 4.488846 11.406165 12.102185 0.000000 0.000000 0.000000 -4.842713 -0.004488 3.622988 3.645420 -0.359026 -3.712917 0.470916 -5.012449 12.342195 0.000000 0.000000 0.000000 5.688805 -0.385047 3.916457 -5.066750 1.751708 -23.413125 -0.440028 7.265790 28.421886 8.598394 -3.156307 -24.053302 0.000000 0.000000 0.000000 -11.518425 -3.090722 0.407972 -38.466326 -7.133794 -4.277809 1.721896 -19.313594 0.450845 0.000000 0.000000 0.000000 22.072494 -7.697755 -4.843932 37.613022 10.464257 -2.951313 -2.799234 21.314237 0.544835 0.000000 0.000000 0.000000 
0.000173 0.951402 0.001800 -0.761820 -5.872372 -0.112244 2.872144 0.654319 8.659652 -2.550330 0.411904 -7.374491 4.539082 11.521033 12.271789 0.000000 0.000000 0.000000 -4.718255 -0.021511 3.752189 3.567350 -0.356193 -3.825972 0.367381 -5.154039 12.248237 0.000000 0.000000 0.000000 5.418338 -0.377497 3.935503 -4.693604 1.661423 -23.139634 -0.448697 7.212139 28.017260 8.512325 -3.103166 -23.949916 0.000000 0.000000 0.000000 -13.064424 -3.596063 0.522538 -40.248578 -6.339500 -4.641323 -0.359406 -19.722538 0.820324 0.000000 0.000000 0.000000 23.914394 -6.981367 -4.621653 39.437245 9.166279 -3.408086 -2.104602 22.207447 0.706598 0.000000 0.000000 0.000000 
0.000049 0.951547 0.002091 -0.811003 -5.759566 -0.007213 2.907491 0.622636 8.336678 -2.507165 0.404904 -7.176539 4.805322 11.987609 12.517848 0.000000 0.000000 0.000000 -4.722667 -0.008779 3.487813 3.650040 -0.360256 -3.477681 0.220260 -5.366689 12.119827 0.000000 0.000000 0.000000 5.527757 -0.386677 3.968222 -4.899819 1.715790 -23.034960 -0.358822 7.119367 28.041905 8.535160 -3.004237 -24.707990 0.000000 0.000000 0.000000 -14.394520 -3.940054 0.602247 -42.554314 -6.333348 -4.875398 -2.306208 -19.846588 1.174459 0.000000 0.000000 0.000000 25.641082 -6.439747 -4.479062 41.867740 8.350895 -3.821919 -1.263402 22.399543 0.884266 0.000000 0.000000 0.000000 
-0.000006 0.951694 0.002355 -0.832325 -5.510798 0.041074 3.040798 0.596165 8.187097 -2.688275 0.414864 -7.237273 4.749815 11.928248 12.601735 0.000000 0.000000 0.000000 -4.660750 -0.015891 3.477834 3.631590 -0.361743 -3.554427 0.168496 -5.529638 12.380832 0.000000 0.000000 0.000000 5.495015 -0.390326 4.007604 -4.941782 1.730444 -23.027704 -0.271318 7.064308 27.982163 8.421690 -2.894482 -24.869207 0.000000 0.000000 0.000000 -15.874811 -4.616436 0.816282 -44.803413 -6.462047 -5.034429 -4.012892 -19.289538 1.433201 0.000000 0.000000 0.000000 26.974674 -6.016233 -4.320269 44.776754 7.060683 -4.446839 -0.306609 22.017767 1.057622 0.000000 0.000000 0.000000 
-0.000030 0.951830 0.002638 -0.915674 -5.324320 -0.046617 3.173338 0.598167 8.377011 -2.676329 0.419846 -7.674493 4.898126 12.225747 12.948463 0.000000 0.000000 0.000000 -4.587422 -0.034764 3.666871 3.723746 -0.369232 -3.540149 0.074559 -5.678371 12.377603 0.000000 0.000000 0.000000 5.613129 -0.394878 4.021234 -5.015654 1.757550 -22.715279 -0.307684 6.964814 27.787358 8.459881 -2.825323 -25.399008 0.000000 0.000000 0.000000 -17.077877 -5.001236 0.920601 -47.528792 -6.167677 -5.381967 -5.353794 -18.721890 1.620785 0.000000 0.000000 0.000000 27.855701 -5.696610 -4.204112 47.774414 6.178971 -4.950240 1.219040 21.204974 1.279754 0.000000 0.000000 0.000000 
0.000027 0.951849 0.002932 -0.920432 -5.214042 -0.096456 3.231618 0.591482 8.369108 -2.754085 0.419471 -7.436571 4.778807 11.995553 12.539761 0.000000 0.000000 0.000000 -4.527904 -0.043646 3.714890 3.709190 -0.369699 -3.591333 -0.139557 -6.092557 12.460806 0.000000 0.000000 0.000000 5.658086 -0.400303 4.070582 -5.124390 1.783932 -22.979768 -0.179466 7.021542 27.927732 8.494615 -2.804864 -25.565152 0.000000 0.000000 0.000000 -17.934828 -5.513264 1.109812 -50.087415 -5.538272 -5.892932 -6.847087 -18.459411 1.848453 0.000000 0.000000 0.000000 28.522005 -5.612432 -4.163553 50.217075 5.237830 -5.520553 2.463368 20.073820 1.410254 0.000000 0.000000 0.000000 
0.000095 0.951952 0.003155 -0.949458 -5.025979 -0.100232 3.201685 0.590129 8.372663 -2.665578 0.414930 -7.566559 4.683891 11.865193 12.588544 0.000000 0.000000 0.000000 -4.631613 -0.049957 3.916034 3.841130 -0.380254 -3.751849 -0.117508 -6.025808 12.460147 0.000000 0.000000 0.000000 5.608151 -0.405849 4.151962 -5.131597 1.789251 -22.980988 0.007351 6.985433 27.758745 8.159089 -2.526718 -25.931694 0.000000 0.000000 0.000000 -18.360109 -5.651861 1.125403 -52.266411 -5.446786 -6.133607 -7.738972 -17.823680 1.928739 0.000000 0.000000 0.000000 28.698169 -5.812055 -4.290798 52.542228 4.618647 -5.924851 3.475711 19.330123 1.515325 0.000000 0.000000 0.000000 
0.000198 0.952378 0.003251 -0.916581 -4.866149 -0.251605 3.199828 0.598396 8.505494 -2.775378 0.419046 -7.519730 4.510419 11.576855 12.391580 0.000000 0.000000 0.000000 -4.544419 -0.073897 4.177062 3.705571 -0.374561 -3.880226 -0.180519 -6.158501 12.560692 0.000000 0.000000 0.000000 5.574775 -0.408099 4.221325 -5.110692 1.784742 -23.172207 0.095347 6.888920 27.843580 7.910517 -2.399642 -25.808091 0.000000 0.000000 0.000000 -18.800953 -5.820208 1.190321 -53.043895 -5.108295 -6.365207 -8.371740 -17.753067 2.023895 0.000000 0.000000 0.000000 29.019166 -5.583967 -4.159453 53.420729 4.189563 -6.192421 3.498559 18.630504 1.455809 0.000000 0.000000 0.000000 
0.000308 0.952793 0.003207 -0.909875 -4.856024 -0.335200 3.146661 0.604982 8.534546 -2.616350 0.409840 -7.498929 4.472755 11.546643 12.606723 0.000000 0.000000 0.000000 -4.773754 -0.067379 4.357263 3.917355 -0.387524 -3.993316 0.042651 -5.767542 12.632625 0.000000 0.000000 0.000000 5.596619 -0.415543 4.314769 -5.126925 1.786175 -23.408360 0.231552 6.939657 28.051084 7.602444 -2.189285 -25.963438 0.000000 0.000000 0.000000 -18.834642 -5.958576 1.254561 -53.688259 -5.070576 -6.471737 -8.671729 -17.358892 2.024178 0.000000 0.000000 0.000000 29.073965 -5.626422 -4.160217 54.103891 4.213948 -6.264428 3.424379 18.269046 1.418674 0.000000 0.000000 0.000000 
0.000403 0.953118 0.003018 -0.892730 -4.777118 -0.346631 3.168796 0.601335 8.527663 -2.592615 0.409262 -7.580939 4.326227 11.330241 12.691479 0.000000 0.000000 0.000000 -4.934951 -0.065862 4.541282 4.007273 -0.393956 -4.264540 0.134160 -5.630402 12.755572 0.000000 0.000000 0.000000 5.661202 -0.415093 4.280164 -5.190471 1.801900 -23.520906 0.256716 6.859059 28.121554 7.662769 -2.210678 -26.115034 0.000000 0.000000 0.000000 -18.627561 -6.003013 1.300195 -53.982657 -4.998142 -6.548429 -8.819116 -17.381673 2.051411 0.000000 0.000000 0.000000 29.139668 -5.738590 -4.254497 54.275502 4.335208 -6.226857 3.207827 18.065401 1.371122 0.000000 0.000000 0.000000 
0.000438 0.953181 0.002695 -0.908288 -4.878545 -0.216158 3.245200 0.585736 8.383076 -2.637141 0.414192 -7.688271 4.275507 11.239029 12.699993 0.000000 0.000000 0.000000 -5.179385 -0.042451 4.509694 4.206062 -0.403470 -4.457675 0.286087 -5.416802 12.911378 0.000000 0.000000 0.000000 5.615289 -0.408203 4.197479 -5.178186 1.794010 -23.688361 0.340008 6.735466 28.107738 7.331776 -2.038591 -26.154156 0.000000 0.000000 0.000000 -18.537787 -5.988387 1.347380 -54.239748 -5.142334 -6.517613 -8.908669 -17.120839 2.036662 0.000000 0.000000 0.000000 29.023110 -5.630892 -4.249855 54.415699 4.354502 -6.198771 2.777214 18.126032 1.312189 0.000000 0.000000 0.000000 
